<svg width="0" height="0" class="hidden">

    <symbol id="svg-lojas" xmlns="http://www.w3.org/2000/svg"  xmlns:xlink="http://www.w3.org/1999/xlink" viewBox="0 0 600 600">
       <circle style="stroke-width:28.34px;fill:none; stroke:currentcolor;stroke-miterlimit:10;" cx="223.93" cy="482.61" r="47.79"/>
        <circle style="stroke-width:28.34px;fill:none; stroke:currentcolor;stroke-miterlimit:10;" cx="461.75" cy="479.37" r="47.79"/>
        <path  style="stroke-width:28.34px; fill:none; stroke:currentcolor;stroke-linecap:round; stroke-linejoin:round;" d="m64.8,69.79c27.6,0,69.95-4.47,74.55,29.59,4.6,34.06,64.86,336.43,64.86,336.43l257.54-4.24"/>
        <polygon style="fill:none; stroke:currentcolor; stroke-linecap:round; stroke-linejoin:round; stroke-width:26.25px;" points="503.25 347.02 191.05 347.02 152.24 158.3 535.2 158.3 503.25 347.02"/>
    </symbol>

    <symbol id="svg-marcas" xmlns="http://www.w3.org/2000/svg" viewBox="0 0 600 600">
        <path style="stroke-width:0px;fill:currentcolor;" d="m510.74,259.81c.03-.4.04-.82.07-1.22.12.29.28.57.34.87.02.08-.26.23-.4.34h0Z"/>
        <path style="stroke-width:0px;fill:currentcolor;" d="m75.06,146.07c-1-8.45,2.65-15.53,7.14-22.08,5.95-8.67,14.75-13.11,24.79-15.94,12.26-3.45,24.26-7.82,36.39-11.75,25.86-8.39,51.74-16.73,77.59-25.15,21.49-6.99,43-13.93,64.41-21.15,12.14-4.09,23.67-1.61,35.26,2.19,41.41,13.58,82.82,27.09,124.25,40.62,17.82,5.82,35.58,11.81,53.49,17.31,15.46,4.75,26.3,19.04,26.96,35.95-.04.17-.16.37-.11.5.12.3.33.58.5.87,0,36.97.31,73.95-.08,110.92-.27,25.09-3.13,49.9-8.65,74.51-9.04,40.39-26.81,76.49-51.73,109.13-12.79,16.76-27.61,31.73-43.84,45.39-28.32,23.83-59.65,42.41-93.73,56.57-9.33,3.87-18.25,8.37-28.96,8.17-8.25-.16-15.43-3.08-22.62-6.01-23.12-9.42-45.31-20.84-66.08-34.67-11.71-7.79-22.67-16.8-33.41-25.91-9.07-7.7-17.68-16.02-25.89-24.64-15.12-15.87-28.36-33.34-38.39-52.82-8.27-16.06-15.8-32.62-22.13-49.53-6.77-18.09-11.08-36.99-12.89-56.33-1.01-10.66-2.87-21.3-3.03-31.97-.34-22.98.24-45.96.34-68.94.08-17.96.03-35.92.03-53.87.13-.46.26-.92.39-1.38l.02.02Zm416.59,2.24c.13-.11.39-.26.36-.32-.09-.28-.26-.54-.39-.81-1.9-1.76-3.52-4.1-5.75-5.18-3.8-1.83-7.96-2.93-12-4.24-26.97-8.72-53.95-17.41-80.92-26.1-30.03-9.67-60.04-19.38-90.11-28.92-2.08-.66-4.71-.63-6.79.03-20.63,6.5-41.21,13.17-61.8,19.83-25.11,8.14-50.19,16.37-75.32,24.48-14.58,4.71-29.25,9.11-43.77,13.98-2.4.81-4.22,3.34-6.3,5.08-.03.72-.07,1.44-.11,2.16.05,36.61.28,73.22.06,109.83-.1,17.27.3,34.53,3.53,51.46,4.45,23.35,11.46,45.96,21.91,67.48,18,37.09,43.86,67.74,76.23,92.86,23.84,18.5,50.12,33.05,78.1,44.39,5.15,2.08,10.17,5.59,16.51,2.47,15.37-7.56,31.4-13.9,46.34-22.21,33.83-18.82,63.29-42.92,87.05-73.88,15.81-20.6,28.22-42.89,37.16-67.17,10.7-29.05,14.96-59.27,15.94-90.04.13-.11.38-.24.36-.31-.05-.28-.19-.53-.3-.8,0-38.02.02-76.03.03-114.05h0Z"/>
        <path style="stroke-width:0px;fill:currentcolor;" d="m271.51,321.83c40.62-40.61,80.94-80.68,120.89-121.13,6.17-6.25,20.64-7.11,27.42-2.74,7.15,4.61,10.72,15.9,7.08,24.59-1.33,3.17-3.57,6.18-6.03,8.63-44.19,44.34-88.53,88.53-132.69,132.9-10.05,10.1-24.51,9.35-33.22.23-21.32-22.32-43.48-43.84-65.34-65.64-13.01-12.97-6.02-31.62,7.32-35.09,8.62-2.25,16.42-.13,22.94,6.47,17.06,17.27,34.26,34.39,51.61,51.77h.01Z"/>
    </symbol>
    
    <symbol id="svg-produtos" xmlns="http://www.w3.org/2000/svg" viewBox="0 0 600 600">        
        <rect style="fill:none;stroke:currentcolor;stroke-linecap:round;stroke-linejoin:round;stroke-width:32px;" x="36.75" y="180.26" width="526.51" height="363.26"/>
        <polygon style="fill:none;stroke:currentcolor;stroke-linecap:round;stroke-linejoin:round;stroke-width:32px;" points="563.25 175.78 36.75 175.78 153.34 56.48 446.65 56.48 563.25 175.78"/>
        <polygon style="fill:none;stroke:currentcolor;stroke-linecap:round;stroke-linejoin:round;stroke-width:32px;" points="372.2 180.26 233.18 180.26 233.18 343.5 302.12 303.14 372.2 343.5 372.2 180.26"/>
    </symbol>
</svg>
