<?xml version="1.0" encoding="UTF-8"?><svg id="Camada_1" xmlns="http://www.w3.org/2000/svg" width="361" height="110" viewBox="0 0 361 110"><defs><style>.cls-1{fill:#fdc300;}.cls-1,.cls-2{stroke-width:0px;}.cls-2{fill:#183a68;}</style></defs><path class="cls-2" d="m22.32,55.99c-13.76,0-20.63-8.03-20.63-24.07V7.85h12.04v24.07c0,11.46,4.01,17.19,12.03,17.19h3.44V7.85h12l.03,41.27h15.47V7.85h12l.03,48.14H22.32Z"/><path class="cls-2" d="m73.9,30.2c0-6.88,4.58-10.32,13.75-10.32h12.04c10.32,0,15.47,3.44,15.47,10.32v1.72c0,6.88-5.16,10.32-15.47,10.32h-8.6c-3.44,0-5.16,1.15-5.16,3.44s1.72,3.44,5.16,3.44h24.07v6.88h-25.79c-10.32,0-15.47-3.73-15.47-11.18v-14.62Zm12.03,5.33c1.08-.11,2.23-.17,3.44-.17h8.6c3.44,0,5.16-1.15,5.16-3.44v-1.72c0-2.29-1.72-3.44-5.16-3.44h-6.88c-3.44,0-5.16,1.17-5.16,3.51v5.26Z"/><path class="cls-2" d="m120.32,55.99l.03-48.14h12v12.04h15.47c9.17,0,13.76,4.59,13.76,13.76v8.6c0,9.17-4.59,13.76-13.76,13.76h-27.51Zm12.04-6.88h8.6c5.73,0,8.6-2.29,8.6-6.88v-8.6c0-4.59-2.86-6.88-8.6-6.88h-8.6v22.35Z"/><path class="cls-2" d="m194.26,7.85c9.17,0,13.76,4.59,13.76,13.75s-4.59,13.76-13.76,13.76h-15.48v20.63h-12l-.03-48.14h27.51Zm-15.48,20.63h8.6c5.73,0,8.6-2.29,8.6-6.88s-2.87-6.88-8.6-6.88h-8.6v13.76Z"/><path class="cls-2" d="m225.21,55.99h-12.04V19.88h27.51c9.17,0,13.76,4.59,13.76,13.76h-12.04c0-4.59-2.87-6.88-8.6-6.88h-8.59v29.23Z"/><path class="cls-2" d="m261.32,16.45c-1.15,0-1.72-.57-1.72-1.72v-5.16c0-1.15.57-1.72,1.72-1.72h8.6c1.15,0,1.72.57,1.72,1.72v5.16c0,1.15-.57,1.72-1.72,1.72h-8.6Zm10.32,39.55h-12.04V19.88h12.04v36.11Z"/><path class="cls-2" d="m312.9,49.12l.03,6.88h-22.39c-9.17,0-13.75-4.59-13.75-13.76v-8.6c0-9.17,4.58-13.76,13.75-13.76h22.39v6.88h-15.51c-5.73,0-8.6,2.29-8.6,6.88v8.6c0,4.59,2.87,6.88,8.6,6.88h15.47Z"/><path class="cls-2" d="m318.05,30.2c0-6.88,4.59-10.32,13.76-10.32h12.04c10.31,0,15.47,3.44,15.47,10.32v1.72c0,6.88-5.16,10.32-15.47,10.32h-8.6c-3.44,0-5.16,1.15-5.16,3.44s1.72,3.44,5.16,3.44h24.07v6.88h-25.79c-10.32,0-15.48-3.73-15.48-11.18v-14.62Zm12.04,5.33c1.08-.11,2.22-.17,3.44-.17h8.6c3.44,0,5.16-1.15,5.16-3.44v-1.72c0-2.29-1.72-3.44-5.16-3.44h-6.88c-3.44,0-5.16,1.17-5.16,3.51v5.26Z"/><path class="cls-1" d="m11.83,86.92c-6.77,0-10.15-3.38-10.15-10.15s3.38-10.15,10.15-10.15h20.31v5.08h-15.23c-4.23,0-6.35,1.69-6.35,5.08s2.12,5.08,6.35,5.08h5.08c6.77,0,10.15,3.38,10.15,10.15s-3.39,10.15-10.15,10.15H1.68v-5.08h15.23c4.23,0,6.35-1.69,6.35-5.08s-2.12-5.08-6.35-5.08h-5.08Z"/><path class="cls-1" d="m52.44,75.5v5.08h-3.81v11.42c0,3.38,2.11,5.08,6.34,5.08v5.08h-5.08c-6.77,0-10.15-3.38-10.15-10.15v-11.42h-3.81v-5.08h3.81v-5.08h8.88v5.08h3.81Z"/><path class="cls-1" d="m89.24,102.15h-19.04c-7.61,0-11.42-2.54-11.42-7.61v-1.29c0-4.97,3.81-7.46,11.42-7.46h6.35c2.54,0,3.81-.89,3.81-2.67s-1.27-2.54-3.81-2.54h-17.77v-5.08h19.04c7.61,0,11.42,2.75,11.42,8.25v18.4Zm-8.88-11.45l-8.88.03c-2.54.08-3.81.93-3.81,2.54v1.27c0,1.69,1.27,2.54,3.81,2.54h8.88v-6.37Z"/><path class="cls-1" d="m101.93,102.15h-8.88v-26.65h20.3c6.77,0,10.15,3.38,10.15,10.15h-8.88c0-3.38-2.12-5.08-6.35-5.08h-6.35v21.57Z"/><path class="cls-1" d="m143.81,75.5v5.08h-3.81v11.42c0,3.38,2.11,5.08,6.34,5.08v5.08h-5.08c-6.77,0-10.15-3.38-10.15-10.15v-11.42h-3.81v-5.08h3.81v-5.08h8.88v5.08h3.81Z"/><path class="cls-1" d="m150.16,83.12c0-5.08,3.39-7.61,10.15-7.61h8.88c7.61,0,11.42,2.54,11.42,7.61v1.27c0,5.08-3.81,7.61-11.42,7.61h-6.35c-2.54,0-3.81.85-3.81,2.54s1.27,2.54,3.81,2.54h17.77v5.08h-19.04c-7.61,0-11.42-2.75-11.42-8.25v-10.79Zm8.88,3.93c.8-.08,1.64-.13,2.54-.13h6.35c2.54,0,3.81-.85,3.81-2.54v-1.27c0-1.69-1.27-2.54-3.81-2.54h-5.08c-2.54,0-3.81.86-3.81,2.59v3.88Z"/><path class="cls-1" d="m193.31,102.15h-8.88v-26.65h20.3c6.77,0,10.15,3.38,10.15,10.15h-8.88c0-3.38-2.12-5.08-6.35-5.08h-6.35v21.57Z"/></svg>