<?xml version="1.0" encoding="UTF-8"?><svg id="Camada_1" xmlns="http://www.w3.org/2000/svg" width="360" height="110" viewBox="0 0 360 110"><defs><style>.cls-1{fill:#0097b3;}.cls-1,.cls-2{stroke-width:0px;}.cls-2{fill:#183a68;}</style></defs><path class="cls-2" d="m22.82,55.61c-13.76,0-20.63-8.03-20.63-24.07V7.47h12.04v24.07c0,11.46,4.01,17.19,12.03,17.19h3.44V7.47h12l.03,41.27h15.47V7.47h12l.03,48.14H22.82Z"/><path class="cls-2" d="m74.4,29.82c0-6.88,4.58-10.32,13.75-10.32h12.04c10.32,0,15.47,3.44,15.47,10.32v1.72c0,6.88-5.16,10.32-15.47,10.32h-8.6c-3.44,0-5.16,1.15-5.16,3.44s1.72,3.44,5.16,3.44h24.07v6.88h-25.79c-10.32,0-15.47-3.73-15.47-11.18v-14.62Zm12.03,5.33c1.08-.11,2.23-.17,3.44-.17h8.6c3.44,0,5.16-1.15,5.16-3.44v-1.72c0-2.29-1.72-3.44-5.16-3.44h-6.88c-3.44,0-5.16,1.17-5.16,3.51v5.26Z"/><path class="cls-2" d="m120.82,55.61l.03-48.14h12v12.04h15.47c9.17,0,13.76,4.59,13.76,13.76v8.6c0,9.17-4.59,13.76-13.76,13.76h-27.51Zm12.04-6.88h8.6c5.73,0,8.6-2.29,8.6-6.88v-8.6c0-4.59-2.86-6.88-8.6-6.88h-8.6v22.35Z"/><path class="cls-2" d="m194.76,7.47c9.17,0,13.76,4.59,13.76,13.75s-4.59,13.76-13.76,13.76h-15.48v20.63h-12l-.03-48.14h27.51Zm-15.48,20.63h8.6c5.73,0,8.6-2.29,8.6-6.88s-2.87-6.88-8.6-6.88h-8.6v13.76Z"/><path class="cls-2" d="m225.71,55.61h-12.04V19.51h27.51c9.17,0,13.76,4.59,13.76,13.76h-12.04c0-4.59-2.87-6.88-8.6-6.88h-8.59v29.23Z"/><path class="cls-2" d="m261.81,16.07c-1.15,0-1.72-.57-1.72-1.72v-5.16c0-1.15.57-1.72,1.72-1.72h8.6c1.15,0,1.72.57,1.72,1.72v5.16c0,1.15-.57,1.72-1.72,1.72h-8.6Zm10.32,39.55h-12.04V19.51h12.04v36.11Z"/><path class="cls-2" d="m313.39,48.74l.03,6.88h-22.39c-9.17,0-13.75-4.59-13.75-13.76v-8.6c0-9.17,4.58-13.76,13.75-13.76h22.39v6.88h-15.51c-5.73,0-8.6,2.29-8.6,6.88v8.6c0,4.59,2.87,6.88,8.6,6.88h15.47Z"/><path class="cls-2" d="m318.55,29.82c0-6.88,4.59-10.32,13.76-10.32h12.04c10.31,0,15.47,3.44,15.47,10.32v1.72c0,6.88-5.16,10.32-15.47,10.32h-8.6c-3.44,0-5.16,1.15-5.16,3.44s1.72,3.44,5.16,3.44h24.07v6.88h-25.79c-10.32,0-15.48-3.73-15.48-11.18v-14.62Zm12.04,5.33c1.08-.11,2.22-.17,3.44-.17h8.6c3.44,0,5.16-1.15,5.16-3.44v-1.72c0-2.29-1.72-3.44-5.16-3.44h-6.88c-3.44,0-5.16,1.17-5.16,3.51v5.26Z"/><path class="cls-1" d="m12.89,65.45v18.54c0,8.24,2.79,12.36,8.37,12.36h13.52v6.18h-16.09c-10.73,0-16.09-6.18-16.09-18.54v-18.54h10.3Z"/><path class="cls-1" d="m39.29,72.92c-1.29,0-1.93-.6-1.93-1.8v-3.86c0-1.2.64-1.8,1.93-1.8h6.44c1.29,0,1.93.6,1.93,1.8v3.86c0,1.2-.64,1.8-1.93,1.8h-6.44Zm8.37,29.61h-10.3v-28.07h10.3v28.07Z"/><path class="cls-1" d="m70.19,84.76c8.15,0,12.23,2.75,12.23,8.24v1.29c0,5.49-4.08,8.24-12.23,8.24h-19.96v-6.18h18.67c2.15,0,3.22-.69,3.22-2.06v-1.29c0-1.37-1.07-2.06-3.22-2.06h-6.44c-8.15,0-12.23-2.75-12.23-8.24s4.08-8.24,12.23-8.24h19.96v6.18h-18.67c-2.15,0-3.22.69-3.22,2.06s1.07,2.06,3.22,2.06h6.44Z"/><path class="cls-1" d="m103.02,74.46v6.18h-3.86v11.07c0,3.09,2.15,4.64,6.44,4.64v6.18h-5.79c-7.3,0-10.94-3.6-10.94-10.82v-11.07h-3.86v-6.18h3.86v-5.15h10.3v5.15h3.86Z"/></svg>